HIERARCHY
ROOT joint_Root
{
	OFFSET 0.0 0.0 0.0
	CHANNELS 6 Xposition Yposition Zposition Zrotation Xrotation Yrotation 
	JOINT Hips
	{
		OFFSET 4.5925 91.4895 -427.239
		CHANNELS 6 Xposition Yposition Zposition Zrotation Xrotation Yrotation 
		JOINT Spine
		{
			OFFSET 15.7357 0.0 0.0
			CHANNELS 6 Xposition Yposition Zposition Zrotation Xrotation Yrotation 
			JOINT Chest
			{
				OFFSET 8.98455 -0.406207 0.0
				CHANNELS 6 Xposition Yposition Zposition Zrotation Xrotation Yrotation 
				JOINT Neck
				{
					OFFSET 16.3773 0.0 0.0
					CHANNELS 6 Xposition Yposition Zposition Zrotation Xrotation Yrotation 
					JOINT Head
					{
						OFFSET 6.45672 0.0 0.0
						CHANNELS 6 Xposition Yposition Zposition Zrotation Xrotation Yrotation 
						End Site
						{
							OFFSET 0.0 0.0 0.0
						}
					}
				}
				JOINT Shoulder_L
				{
					OFFSET 12.9942 -0.242716 4.98039
					CHANNELS 6 Xposition Yposition Zposition Zrotation Xrotation Yrotation 
					JOINT UpperArm_L
					{
						OFFSET 5.34809 0.0 0.0
						CHANNELS 6 Xposition Yposition Zposition Zrotation Xrotation Yrotation 
						JOINT LowerArm_L
						{
							OFFSET 24.3286 1.87007e-05 0.0
							CHANNELS 6 Xposition Yposition Zposition Zrotation Xrotation Yrotation 
							JOINT Hand_L
							{
								OFFSET 22.2916 0.0 0.0
								CHANNELS 6 Xposition Yposition Zposition Zrotation Xrotation Yrotation 
								End Site
								{
									OFFSET 0.0 0.0 0.0
								}
							}
						}
					}
				}
				JOINT Shoulder_R
				{
					OFFSET 12.9945 -0.242716 -4.98039
					CHANNELS 6 Xposition Yposition Zposition Zrotation Xrotation Yrotation 
					JOINT UpperArm_R
					{
						OFFSET -5.34813 0.0 0.0
						CHANNELS 6 Xposition Yposition Zposition Zrotation Xrotation Yrotation 
						JOINT LowerArm_R
						{
							OFFSET -24.3289 0.000322201 0.0
							CHANNELS 6 Xposition Yposition Zposition Zrotation Xrotation Yrotation 
							JOINT Hand_R
							{
								OFFSET -22.2915 -0.000108084 0.0
								CHANNELS 6 Xposition Yposition Zposition Zrotation Xrotation Yrotation 
								End Site
								{
									OFFSET 0.0 0.0 0.0
								}
							}
						}
					}
				}
			}
		}
		JOINT UpperLeg_L
		{
			OFFSET -2.19248 -6.46944 0.0
			CHANNELS 6 Xposition Yposition Zposition Zrotation Xrotation Yrotation 
			JOINT LowerLeg_L
			{
				OFFSET 39.0811 0.0 -1.23785e-05
				CHANNELS 6 Xposition Yposition Zposition Zrotation Xrotation Yrotation 
				JOINT Foot_L
				{
					OFFSET 40.9854 0.0 -1.26872e-05
					CHANNELS 6 Xposition Yposition Zposition Zrotation Xrotation Yrotation 
					JOINT Toes_L
					{
						OFFSET 11.7543 0.0 0.0
						CHANNELS 6 Xposition Yposition Zposition Zrotation Xrotation Yrotation 
						End Site
						{
							OFFSET 0.0 0.0 0.0
						}
					}
				}
			}
		}
		JOINT UpperLeg_R
		{
			OFFSET -2.19251 6.46944 0.0
			CHANNELS 6 Xposition Yposition Zposition Zrotation Xrotation Yrotation 
			JOINT LowerLeg_R
			{
				OFFSET -39.0811 -0.00228153 -0.0401928
				CHANNELS 6 Xposition Yposition Zposition Zrotation Xrotation Yrotation 
				JOINT Foot_R
				{
					OFFSET -40.9854 0.0 0.0
					CHANNELS 6 Xposition Yposition Zposition Zrotation Xrotation Yrotation 
					JOINT Toes_R
					{
						OFFSET -11.7543 0.0 0.0
						CHANNELS 6 Xposition Yposition Zposition Zrotation Xrotation Yrotation 
						End Site
						{
							OFFSET 0.0 0.0 0.0
						}
					}
				}
			}
		}
	}
}
MOTION
Frames:	9
Frame Time:	0.0333333
0.000000 0.000000 0.000000 0.000000 0.000000 -0.000000 1.630980 95.850700 -40.450000 86.298300 -15.409200 -8.368380 15.735700 0.000005 -0.000001 144.024000 79.394600 -144.337000 8.984550 -0.406207 -0.000000 4.918170 17.140200 -1.368830 16.377300 -0.000001 -0.000001 -0.983053 0.551975 -1.720210 6.456720 -0.000001 -0.000000 -3.246600 -9.481560 2.211280 12.994200 -0.242716 4.980390 -83.123100 -12.991900 -61.786900 5.348090 -0.000007 -0.000001 -68.625000 22.032000 38.171900 24.328600 0.000019 0.000005 15.772000 5.998670 -69.687400 22.291600 -0.000001 0.000005 -6.045600 5.513900 -7.110460 12.994500 -0.242716 -4.980390 90.349800 -3.560490 -84.385500 -5.348130 -0.000001 -0.000004 -52.053700 25.636100 -47.521100 -24.328900 0.000322 -0.000009 -4.002600 1.512090 -110.673000 -22.291500 -0.000108 -0.000004 4.224160 5.412310 -3.335200 -2.192480 -6.469440 -0.000000 178.906000 -11.357400 -28.365000 39.081100 -0.000007 -0.000012 -0.013612 0.113959 6.811320 40.985400 -0.000006 -0.000013 -3.703190 9.706570 -72.762500 11.754300 -0.000000 0.000003 -0.004064 -0.052112 -18.696600 -2.192510 6.469440 -0.000001 165.490000 7.944400 -162.743000 -39.081100 -0.002282 -0.040193 0.528456 -0.450318 49.390900 -40.985400 0.000008 0.000006 -8.030450 15.665700 -15.710800 -11.754300 -0.000006 -0.000006 -0.010556 -0.107750 -20.963900
0.000000 0.000000 0.000000 0.000000 0.000000 -0.000000 1.397550 93.628800 -28.861600 86.202900 -14.298700 -7.935480 15.735700 0.000005 -0.000001 141.945000 79.926800 -142.417000 8.984550 -0.406207 -0.000000 4.868640 15.845900 -1.627160 16.377300 -0.000001 -0.000001 -0.277554 0.213506 -1.007780 6.456720 -0.000001 -0.000000 -2.907520 -8.840180 2.654940 12.994200 -0.242716 4.980390 -84.666800 -10.128400 -62.039300 5.348090 -0.000007 -0.000001 -66.595900 16.153600 33.270800 24.328600 0.000019 0.000005 21.683000 6.662210 -73.726100 22.291600 -0.000001 0.000005 -6.212950 5.482390 -5.837000 12.994500 -0.242716 -4.980390 90.219300 -2.331600 -84.627100 -5.348130 -0.000001 -0.000004 -54.020000 28.829200 -41.905100 -24.328900 0.000322 -0.000009 -4.870170 1.137060 -103.113000 -22.291500 -0.000108 -0.000004 7.060220 5.458590 -4.905770 -2.192480 -6.469440 -0.000000 176.101000 -16.761200 -29.447600 39.081100 -0.000007 -0.000012 -0.015334 0.105580 8.263450 40.985400 -0.000006 -0.000013 -7.549640 5.510890 -74.445100 11.754300 -0.000000 0.000003 -0.004337 -0.054909 -18.810500 -2.192510 6.469440 -0.000001 166.423000 5.797310 -165.244000 -39.081100 -0.002282 -0.040193 0.830401 -0.361698 66.385200 -40.985400 0.000008 0.000006 -10.548100 11.552200 -12.251300 -11.754300 -0.000006 -0.000006 -0.011140 -0.111966 -21.136400
0.000000 0.000000 0.000000 0.000000 0.000000 -0.000000 1.042720 90.354400 -17.973200 86.625300 -13.010800 -7.503670 15.735700 0.000005 -0.000001 138.106000 80.668200 -138.934000 8.984550 -0.406207 -0.000000 4.914170 13.887200 -2.259800 16.377300 -0.000001 -0.000001 -0.193375 -0.223418 0.072678 6.456720 -0.000001 -0.000000 -2.799360 -7.458140 2.776780 12.994200 -0.242716 4.980390 -86.887700 -6.255100 -63.489500 5.348090 -0.000007 -0.000001 -65.445100 8.631230 27.573500 24.328600 0.000019 0.000005 27.053600 6.209380 -78.037700 22.291600 -0.000001 0.000005 -6.496750 5.456010 -4.855850 12.994500 -0.242716 -4.980390 89.978100 0.212865 -84.202400 -5.348130 -0.000001 -0.000004 -55.756000 32.028700 -35.446100 -24.328900 0.000322 -0.000009 -6.033540 0.318688 -93.039900 -22.291500 -0.000108 -0.000004 11.814400 5.556420 -8.888850 -2.192480 -6.469440 -0.000000 175.301000 -15.960000 -34.352600 39.081100 -0.000007 -0.000012 0.231190 -0.549286 22.826300 40.985400 -0.000006 -0.000013 4.228590 -0.204911 -77.179000 11.754300 -0.000000 0.000003 -0.004662 -0.058169 -18.943300 -2.192510 6.469440 -0.000001 167.247000 4.660870 -170.224000 -39.081100 -0.002282 -0.040193 1.189490 -0.074458 86.412700 -40.985400 0.000008 0.000006 -9.224320 5.931070 -9.172080 -11.754300 -0.000006 -0.000006 -0.010729 -0.109007 -21.015300
0.000000 0.000000 0.000000 0.000000 0.000000 -0.000000 1.489400 87.069200 -8.346600 90.549200 -11.564800 -9.993880 15.735700 0.000005 -0.000001 133.682000 82.535400 -136.216000 8.984550 -0.406207 -0.000000 3.313550 10.398300 -5.375570 16.377300 -0.000001 -0.000001 -0.635676 -0.484522 1.177720 6.456720 -0.000001 -0.000000 -3.617920 -5.768860 3.173580 12.994200 -0.242716 4.980390 -89.829100 -0.385140 -66.545400 5.348090 -0.000007 -0.000001 -64.265700 1.889670 21.001400 24.328600 0.000019 0.000005 26.648800 3.478730 -83.119200 22.291600 -0.000001 0.000005 -4.322310 5.452830 -4.741890 12.994500 -0.242716 -4.980390 89.408800 5.673860 -84.038200 -5.348130 -0.000001 -0.000004 -57.872000 32.732800 -26.288200 -24.328900 0.000322 -0.000009 -9.385890 -1.650970 -80.158100 -22.291500 -0.000108 -0.000004 12.925800 5.604380 -11.634300 -2.192480 -6.469440 -0.000000 170.031000 -14.060800 -44.624300 39.081100 -0.000007 -0.000012 0.523191 -0.644700 39.061500 40.985400 -0.000006 -0.000013 7.280420 -0.212570 -57.399000 11.754300 -0.000000 0.000003 -0.002266 -0.032009 -17.878300 -2.192510 6.469440 -0.000001 165.395000 4.561790 176.710000 -39.081100 -0.002282 -0.040193 1.335080 0.438285 108.217000 -40.985400 0.000008 0.000006 -8.831140 5.009950 -3.550620 -11.754300 -0.000006 -0.000006 -0.009926 -0.103086 -20.773100
0.000000 0.000000 0.000000 0.000000 0.000000 -0.000000 2.188690 83.892600 1.344590 93.403400 -7.992650 -10.238400 15.735700 0.000005 -0.000001 115.216000 83.986700 -118.566000 8.984550 -0.406207 -0.000000 3.288850 5.248800 -6.847890 16.377300 -0.000001 -0.000001 -3.094400 -0.397742 1.123910 6.456720 -0.000001 -0.000000 -3.015490 -4.314180 4.346460 12.994200 -0.242716 4.980390 -92.224900 5.943740 -69.428800 5.348090 -0.000007 -0.000001 -63.226300 1.598380 8.686500 24.328600 0.000019 0.000005 18.399700 0.762837 -87.709200 22.291600 -0.000001 0.000005 -3.106330 5.452740 -4.737830 12.994500 -0.242716 -4.980390 89.177200 9.561660 -85.058300 -5.348130 -0.000001 -0.000004 -64.102800 27.061800 -13.465000 -24.328900 0.000322 -0.000009 -15.027000 -7.873280 -63.069400 -22.291500 -0.000108 -0.000004 10.183600 5.641430 -14.250600 -2.192480 -6.469440 -0.000000 168.907000 -6.243500 -45.518900 39.081100 -0.000007 -0.000012 -0.319156 0.228397 54.412200 40.985400 -0.000006 -0.000013 5.984200 -4.846770 -70.656700 11.754300 -0.000000 0.000003 -0.000097 -0.001004 -16.616100 -2.192510 6.469440 -0.000001 164.569000 4.795290 162.331000 -39.081100 -0.002282 -0.040193 1.103600 0.815758 126.552000 -40.985400 0.000008 0.000006 -12.134700 4.256810 6.074790 -11.754300 -0.000006 -0.000006 -0.009933 -0.103133 -20.775000
0.000000 0.000000 0.000000 0.000000 0.000000 -0.000000 2.802300 81.717700 11.340400 96.427100 -3.944470 -7.995250 15.735700 0.000005 -0.000001 98.446600 83.301100 -102.464000 8.984550 -0.406207 -0.000000 5.573580 2.039750 -8.125430 16.377300 -0.000001 -0.000001 -4.309520 -1.774630 0.693996 6.456720 -0.000001 -0.000000 -3.499810 -4.527650 5.574290 12.994200 -0.242716 4.980390 -91.563300 4.999910 -72.641000 5.348090 -0.000007 -0.000001 -67.018100 9.296530 -12.429000 24.328600 0.000019 0.000005 25.050500 0.013900 -89.947000 22.291600 -0.000001 0.000005 -5.594130 5.481250 -5.816950 12.994500 -0.242716 -4.980390 89.079200 8.922050 -84.082400 -5.348130 -0.000001 -0.000004 -67.569100 22.049700 -0.153962 -24.328900 0.000322 -0.000009 -16.071000 -14.525800 -48.933700 -22.291500 -0.000108 -0.000004 12.097200 5.643990 -14.440300 -2.192480 -6.469440 -0.000000 165.991000 -2.592340 -38.119300 39.081100 -0.000007 -0.000012 -0.629264 0.353245 60.693300 40.985400 -0.000006 -0.000013 5.913570 -6.210170 -81.491800 11.754300 -0.000000 0.000003 -0.000209 -0.001921 -16.649900 -2.192510 6.469440 -0.000001 163.333000 2.983740 147.181000 -39.081100 -0.002282 -0.040193 0.532552 0.589078 138.067000 -40.985400 0.000008 0.000006 -15.026900 4.046020 14.657000 -11.754300 -0.000006 -0.000006 -0.010878 -0.110085 -21.059400
0.000000 0.000000 0.000000 0.000000 0.000000 -0.000000 2.292370 81.340500 22.429900 93.842500 -0.375413 -6.288490 15.735700 0.000005 -0.000001 84.473400 82.528300 -87.210800 8.984550 -0.406207 -0.000000 7.081450 -1.417900 -5.381330 16.377300 -0.000001 -0.000001 -4.394190 -1.942090 0.293004 6.456720 -0.000001 -0.000000 -3.414070 -2.888700 5.513970 12.994200 -0.242716 4.980390 -89.947500 -0.225005 -76.402000 5.348090 -0.000007 -0.000001 -68.062500 13.874600 -26.543900 24.328600 0.000019 0.000005 22.827900 -3.318520 -97.872600 22.291600 -0.000001 0.000005 -5.317190 5.467800 -5.315270 12.994500 -0.242716 -4.980390 88.752900 8.306960 -81.430500 -5.348130 -0.000001 -0.000004 -65.415700 28.288900 12.482600 -24.328900 0.000322 -0.000009 -11.168100 -9.939080 -48.843400 -22.291500 -0.000108 -0.000004 7.167030 5.598200 -11.218300 -2.192480 -6.469440 -0.000000 169.840000 -3.170830 -26.081900 39.081100 -0.000007 -0.000012 -0.735883 0.433695 59.488800 40.985400 -0.000006 -0.000013 6.149420 -4.002030 -90.153500 11.754300 -0.000000 0.000003 -0.000152 -0.001468 -16.633300 -2.192510 6.469440 -0.000001 168.366000 2.922390 136.616000 -39.081100 -0.002282 -0.040193 0.120434 0.133657 138.798000 -40.985400 0.000008 0.000006 -14.552500 5.839740 11.023500 -11.754300 -0.000006 -0.000006 -0.011076 -0.111511 -21.117800
0.000000 0.000000 0.000000 0.000000 0.000000 -0.000000 1.257180 83.611000 34.534900 89.105600 4.437710 -7.052220 15.735700 0.000005 -0.000001 63.347900 81.943000 -63.868100 8.984550 -0.406207 -0.000000 6.643460 -7.200450 -0.621825 16.377300 -0.000001 -0.000001 -3.881920 -1.286200 -0.343078 6.456720 -0.000001 -0.000000 -3.078110 0.534955 4.756030 12.994200 -0.242716 4.980390 -89.203900 -3.598110 -77.511100 5.348090 -0.000007 -0.000001 -63.820600 13.096100 -34.688300 24.328600 0.000019 0.000005 11.515400 -3.636580 -107.317000 22.291600 -0.000001 0.000005 -3.898280 5.438730 -4.240930 12.994500 -0.242716 -4.980390 88.613800 6.761300 -78.373400 -5.348130 -0.000001 -0.000004 -65.015100 36.292000 22.333900 -24.328900 0.000322 -0.000009 -11.888600 -9.294930 -52.501900 -22.291500 -0.000108 -0.000004 4.634590 5.596830 -11.176800 -2.192480 -6.469440 -0.000000 177.203000 -3.768650 -12.313000 39.081100 -0.000007 -0.000012 0.184337 -0.166446 47.919300 40.985400 -0.000006 -0.000013 10.779900 -0.436127 -89.205200 11.754300 -0.000000 0.000003 -1.408630 -1.643300 -20.039400 -2.192510 6.469440 -0.000001 177.639000 5.582240 130.579000 -39.081100 -0.002282 -0.040193 -0.027612 -0.025386 129.260000 -40.985400 0.000008 0.000006 -7.514030 6.030900 -4.993960 -11.754300 -0.000006 -0.000006 -0.011373 -0.113623 -21.204200
0.000000 0.000000 0.000000 0.000000 0.000000 -0.000000 0.478530 88.075200 46.861300 84.147900 8.966970 -10.836900 15.735700 0.000005 -0.000001 46.299700 81.871200 -44.124900 8.984550 -0.406207 -0.000000 4.274500 -11.281400 4.778080 16.377300 -0.000001 -0.000001 -3.015160 -1.808760 -0.645980 6.456720 -0.000001 -0.000000 -2.226080 2.364950 3.271520 12.994200 -0.242716 4.980390 -88.798800 -5.410700 -77.464900 5.348090 -0.000007 -0.000001 -61.201500 12.512000 -39.044800 24.328600 0.000019 0.000005 11.012900 -4.763530 -113.102000 22.291600 -0.000001 0.000005 -5.617970 5.423740 -3.718570 12.994500 -0.242716 -4.980390 89.135200 3.359030 -75.536200 -5.348130 -0.000001 -0.000004 -67.198400 35.566000 31.883200 -24.328900 0.000322 -0.000009 -11.491400 -8.100910 -55.268500 -22.291500 -0.000108 -0.000004 2.725770 5.602770 -11.510500 -2.192480 -6.469440 -0.000000 -174.972000 -1.895700 -4.783860 39.081100 -0.000007 -0.000012 0.087713 -0.125208 35.012600 40.985400 -0.000006 -0.000013 8.788080 4.535440 -70.726000 11.754300 -0.000000 0.000003 -0.115191 -0.480793 -36.724400 -2.192510 6.469440 -0.000001 -173.367000 5.394300 125.426000 -39.081100 -0.002282 -0.040193 -0.050749 -0.023078 113.030000 -40.985400 0.000008 0.000006 2.959040 2.858380 -28.057600 -11.754300 -0.000006 -0.000006 -0.008726 -0.093857 -20.395800
